<svg xmlns="http://www.w3.org/2000/svg" version="1.1" xmlns:xlink="http://www.w3.org/1999/xlink" xmlns:svgjs="http://svgjs.dev/svgjs" width="1000" height="750" viewBox="0 0 1000 750"><rect width="1000" height="750" fill="#000000"></rect><g transform="matrix(0.834,0,0,0.834,83.376949893085,26.25361457489879)"><svg viewBox="0 0 295 247" data-background-color="#89939e" preserveAspectRatio="xMidYMid meet" height="837" width="1000" xmlns="http://www.w3.org/2000/svg" xmlns:xlink="http://www.w3.org/1999/xlink"><g id="tight-bounds" transform="matrix(1,0,0,1,-0.13333307139077988,-0.09999999999999432)"><svg viewBox="0 0 295.26666666666665 247.2" height="247.2" width="295.26666666666665"><g><svg viewBox="0 0 295.26666666666665 247.2" height="247.2" width="295.26666666666665"><g><svg viewBox="0 0 295.26666666666665 247.2" height="247.2" width="295.26666666666665"><g><svg viewBox="0 0 295.26666666666665 247.2" height="247.2" width="295.26666666666665"><g><svg viewBox="0 0 295.26666666666665 247.2" height="247.2" width="295.26666666666665"><g id="textblocktransform"><svg viewBox="0 0 295.26666666666665 247.2" height="247.2" width="295.26666666666665" id="textblock"><g><svg viewBox="0 0 295.26666666666665 247.2" height="247.2" width="295.26666666666665"><g transform="matrix(1,0,0,1,0,0)"><svg width="295.26666666666665" viewBox="2.9000000953674316 -35 53.75 45" height="247.2" data-palette-color="#ffffff"><path d="M12.65 0.5L12.65 0.5Q9.6 0.5 7.13-1.05 4.65-2.6 3.25-5.2L3.25-5.2Q2.9-5.8 2.9-6.35L2.9-6.35Q2.9-7.2 3.55-7.73 4.2-8.25 4.85-8.25L4.85-8.25Q5.4-8.25 5.88-7.95 6.35-7.65 6.7-7.2L6.7-7.2Q7.7-5.5 9.2-4.5 10.7-3.5 12.65-3.5L12.65-3.5Q14.7-3.5 16.28-4.4 17.85-5.3 18.78-6.88 19.7-8.45 19.7-10.45L19.7-10.45 19.7-33Q19.7-33.85 20.33-34.43 20.95-35 21.85-35L21.85-35Q22.75-35 23.33-34.43 23.9-33.85 23.9-33L23.9-33 23.9-10.45Q23.9-7.4 22.43-4.9 20.95-2.4 18.43-0.95 15.9 0.5 12.65 0.5ZM44.7-26.25L44.7-26.25Q48.1-26.25 50.8-24.55 53.5-22.85 55.07-19.85 56.65-16.85 56.65-12.95L56.65-12.95Q56.65-9.1 55.07-6.08 53.5-3.05 50.82-1.33 48.15 0.4 44.8 0.4L44.8 0.4Q42.95 0.4 41.32-0.18 39.7-0.75 38.37-1.68 37.05-2.6 36.15-3.78 35.25-4.95 34.85-6.1L34.85-6.1 35.95-6.8 35.95 7.95Q35.95 8.8 35.4 9.4 34.85 10 33.95 10L33.95 10Q33.1 10 32.52 9.43 31.95 8.85 31.95 7.95L31.95 7.95 31.95-24Q31.95-24.85 32.52-25.43 33.1-26 33.95-26L33.95-26Q34.85-26 35.4-25.43 35.95-24.85 35.95-24L35.95-24 35.95-19.55 35.2-19.95Q35.55-21.2 36.42-22.35 37.3-23.5 38.57-24.38 39.85-25.25 41.42-25.75 43-26.25 44.7-26.25ZM44.25-22.55L44.25-22.55Q41.75-22.55 39.82-21.3 37.9-20.05 36.82-17.9 35.75-15.75 35.75-12.95L35.75-12.95Q35.75-10.2 36.82-8 37.9-5.8 39.82-4.55 41.75-3.3 44.25-3.3L44.25-3.3Q46.75-3.3 48.65-4.55 50.55-5.8 51.65-8 52.75-10.2 52.75-12.95L52.75-12.95Q52.75-15.75 51.65-17.9 50.55-20.05 48.65-21.3 46.75-22.55 44.25-22.55Z" opacity="1" transform="matrix(1,0,0,1,0,0)" fill="#ffffff" class="undefined-text-0" data-fill-palette-color="primary" id="text-0"></path></svg></g></svg></g></svg></g></svg></g></svg></g></svg></g></svg></g><defs></defs></svg><rect width="295.26666666666665" height="247.2" fill="none" stroke="none" visibility="hidden"></rect></g></svg></g></svg>